<svg version="1" xmlns="http://www.w3.org/2000/svg" width="922.667" height="922.667" viewBox="0 0 692.000000 692.000000"><path d="M478.4 9.4c-.5 1.4 19.6 239.3 21.3 252.5l.6 4.4-22.4-18.8c-12.3-10.4-34.2-28.8-48.7-40.9-20.9-17.5-25.9-22.2-24.5-22.8 1-.4 11.5-1.6 23.3-2.8 11.8-1.1 22.7-2.3 24.3-2.6 3.4-.7 5.2-3.6 3.7-6.4-1.4-2.6-2.6-2.6-35.5.9l-27 2.9-29-24.3c-15.9-13.4-59.6-50-97-81.4-60.1-50.5-68.3-57.1-71-56.9-2.6.3-3 .8-3.3 3.4-.3 3 3.2 6.1 93.2 81.5 51.4 43.1 93.2 78.6 93 78.8-.5.5-100.7 11.1-101.1 10.7-.2-.2 7.8-9.6 17.7-21.1 9.9-11.4 18-21.1 18-21.6s-.4-.9-.8-.9c-.5 0-9.4 9.9-19.8 21.9-15 17.4-19.5 22.1-21.9 22.5-1.6.4-61 6.7-132 14.1-71 7.5-129.7 13.8-130.7 14.1-.9.2-1.9 1.2-2.2 2.1-.7 1.9 1.9 6.3 3.7 6.3.6-.1 58.1-6.1 127.7-13.4 69.6-7.4 126.6-13.3 126.7-13.2.2.2-70.1 81.4-72.8 84-.5.5-1.1.7-1.4.5-.3-.3-1.2-10.2-2-22-2.1-31.1-2.5-33.9-4-33.9-3.4 0-3.5 2.3-1.5 29.9 1.1 15 2 28.7 2 30.4 0 2.6-1.7 5.2-8.6 13.2-4.8 5.5-42.3 48.6-83.3 95.8-41 47.3-74.8 86.6-74.9 87.4-.2.8 0 1.4.5 1.2.6-.2 38.3-43.3 83.9-95.8l82.9-95.5.3 4c1.1 14.4 8 112.9 7.8 113.1-.1.1-9.3-7.5-20.4-16.8-12.1-10.1-21-16.9-22-16.7-.9.2-1.8 1.3-2 2.4-.2 1.7 4.5 6.1 22.3 21 12.5 10.5 22.7 19.8 23 20.9.2 1.1 4.3 58.5 9 127.5s8.8 126.1 9 126.7c.3.7 1.4 1.3 2.5 1.3 1.7 0 2-.6 2-4.4 0-2.4-3.8-58.9-8.5-125.6-4.7-66.7-8.4-121.4-8.2-121.6.2-.2 12.9 10.2 28.3 23.2 44.2 37.2 60.2 50.4 61.2 50.4.4 0 1.9 1.1 3.1 2.4l2.3 2.4-3.9.6c-2.1.3-13 1.5-24.3 2.7-11.3 1.2-21.3 2.5-22.3 3.1-2.2 1.1-1.9 4.7.5 6.1 1.2.8 9.3.3 29-1.7 15-1.5 28-2.9 28.9-2.9.9-.1 44 35.3 95.9 78.8 51.8 43.4 95.1 79.1 96.2 79.3 1.5.3 1.9-.1 1.6-1.7-.3-2.2-17.2-16.7-128-109.8-30.6-25.7-55.7-47.1-55.7-47.4-.1-.3 5.2-1.1 11.7-1.7 6.4-.7 28.1-3 48.2-5.1 20.1-2.2 36.7-3.8 36.9-3.6.2.2-7 8.7-15.9 19-16.1 18.4-18 21.6-13.4 22.3 1.6.2 3.8-1.7 8.9-7.7 3.7-4.4 7-8.1 7.4-8.3.3-.2 1.6-1.6 2.9-3.2 3.2-4.1 12-14.3 16.7-19.3l4-4.3 129-13.5c71-7.4 130.8-13.8 133-14.2 3.3-.7 4.1-1.2 4.3-3.4.2-1.4-.3-3.1-1-3.7-1-.8-35.4 2.5-128.8 12.3-70.1 7.4-127.6 13.2-127.9 13-.2-.3.5-1.5 1.6-2.8 1.1-1.2 15.6-18 32.3-37.2 16.6-19.3 31.3-36.1 32.6-37.5 1.3-1.4 5.2-5.8 8.6-9.8 3.4-4 6.5-6.9 6.8-6.5.4.4 1.7 12.5 3 26.8 1.2 14.3 2.4 26.3 2.6 26.7 1 1.5 3.4.8 3.4-1 0-.9-.9-11.4-2-23.2-1.1-11.8-2-24.9-2-29v-7.5l7.6-8.8c4.2-4.8 8-8.7 8.5-8.7s.9-.5.9-1.1c0-1.2 9.2-12 18.2-21.4 5.2-5.5 8.7-9.5 12.1-13.8 1.2-1.6 4-4.8 6.2-7.1 2.2-2.4 5.4-5.9 7-8 1.7-2 4.6-5.4 6.5-7.6 1.9-2.1 4.6-5.3 6-7 1.4-1.7 4.1-4.7 6-6.8 2-2 11.3-12.7 20.8-23.7s18.6-21.4 20.2-23.1c1.7-1.6 3-3.5 3-4.1 0-.6.4-1.3.8-1.5.9-.4 10.9-11.3 17.2-18.7 2.5-3 5-6 5.7-6.6 5.4-5.5 16.3-18.8 16.3-19.8 0-1.6-2-3.7-3.6-3.7-.6 0-36.8 41.1-80.5 91.4-60 69-79.5 90.8-79.7 89.2-.2-1.1-.7-3-1.2-4.1-.4-1.1-2.5-21.4-4.5-45-2-23.7-3.8-43.8-4-44.8-.3-1.6-.1-1.6 1.3-.5 1.4 1 27.4 22.7 34.4 28.6 3.2 2.7 7.8-1 6.3-5-.4-.9-9.3-8.8-19.8-17.6-25.6-21.4-23.3-18.8-24-26.9-.4-3.8-5.4-61.4-11.2-127.9-5.8-66.5-10.6-122-10.7-123.3-.3-2.9-2.5-4-3.4-1.7zm-33 222.1l55.5 46.5.6 5.3c1.2 10.5 8.5 95.3 8.5 99 0 3.5-2.7 6.9-45.6 56.2-44.5 51.2-45.7 52.4-49.7 53-5.3.7-108.6 11.5-110.2 11.5-.7 0-7.7-5.4-15.6-12.1-7.9-6.7-30.1-25.3-49.4-41.4-19.2-16.2-36.2-30.4-37.6-31.7l-2.6-2.3-4.2-60.5c-2.3-33.3-4.3-61.9-4.5-63.6-.4-3.2.8-4.8 22.3-29.3 3.1-3.5 17-19.5 30.8-35.4 25-28.8 25.3-29.1 29.5-29.4 2.4-.2 28.8-3 58.8-6.2 30-3.3 55.3-5.9 56.2-6 .9-.1 26.7 20.8 57.2 46.4z"/><path d="M283.2 329.2l.3 104.3 29.5.3c18.2.1 30.3-.1 31.5-.7 1.1-.6 5.1-1.7 8.9-2.6 10.7-2.4 26-10.2 33.6-17.3 22.7-20.8 33-47.8 33-86.6 0-13.8-1.7-30.6-4-39.6-4-15.6-12.1-30.8-20.9-39.5-4.5-4.3-4.8-5.3-2.7-9.3.7-1.5 1.6-4.2 2-6.1l.6-3.4-3.5.6c-1.9.3-5.8 1.7-8.7 3.2l-5.2 2.6-5.8-2.6c-12.6-5.7-27.1-7.4-64.1-7.4L283 225l.2 104.2zm61.7-75.5l3.6 3.8-6.4-.3c-8.2-.5-14 1.7-20.3 7.6-19.5 18.2-3.8 51 22.8 47.7 15.1-1.8 26.8-17.9 23.8-32.6-1.1-5.3-.9-5.6 2-3.4 2.7 2 9.6 2.9 14 1.7 3.6-1 3.7-1 5.5 2.6 8.3 16.7 11.4 46.3 7.2 69.3-4.9 26.4-16 43.5-34.6 53.2-4.8 2.5-13.5 5.7-15.5 5.7-.6 0-1-12.8-1-34v-34h-13v69h-29V250h37.2l3.7 3.7zm9.9.7c1.7 1.9 3.3 3.2 3.7 2.8.3-.3.2.5-.3 1.8-.8 2.2-3.1 2.8-2.4.6.2-.5-.5-1.8-1.6-3-3.5-4-4.4-5.6-3.4-5.6.5 0 2.3 1.5 4 3.4zm5.2.2c0 .8-.4 1.2-1 .9-.5-.3-1-1-1-1.6 0-.5.5-.9 1-.9.6 0 1 .7 1 1.6zm7.4 2.2c.3.5-1.2 2.6-3.3 4.6-5 4.8-6.8 3-2-2 3.4-3.5 4.4-4 5.3-2.6zm7.6 6.8c0 .8.8 1.5 1.8 1.5.9.1-.9.5-4.1.9-3.2.4-6.3 1.2-6.9 1.8-1.3 1.3-1 1.4 6.2 3.1l4.5 1-5.4-.3c-4.3-.3-5.8-.8-7.2-2.7l-1.8-2.4 5.7-2.6c5.9-2.7 7.2-2.8 7.2-.3zm-26 5.6c14.5 7.3 12.2 28.7-3.4 32.7-8.6 2.1-16.8-1.6-20.5-9.2-2.5-5.1-2.7-9.4-.6-14.4s4.2-7.2 9-9.4c5.4-2.5 10.2-2.4 15.5.3z"/></svg>